<?xml version="1.0" standalone="no"?><!DOCTYPE svg PUBLIC "-//W3C//DTD SVG 1.1//EN" "http://www.w3.org/Graphics/SVG/1.1/DTD/svg11.dtd"><svg t="1596513002562" class="icon" viewBox="0 0 1024 1024" version="1.1" xmlns="http://www.w3.org/2000/svg" p-id="10710" xmlns:xlink="http://www.w3.org/1999/xlink" width="128" height="128"><defs><style type="text/css"></style></defs><path d="M359.808 64.384c-132.736 23.232-243.904 111.872-293.952 233.024a24.704 24.704 0 0 0 14.144 32.384 25.856 25.856 0 0 0 33.344-13.824c43.52-105.28 140.16-182.464 255.488-202.56a25.024 25.024 0 0 0 20.736-28.928 25.6 25.6 0 0 0-29.76-20.096z m295.296 49.024c115.392 20.096 212.032 97.344 255.488 202.56 5.312 12.8 20.224 18.944 33.344 13.824a24.832 24.832 0 0 0 14.272-32.384c-50.112-121.152-161.28-209.792-294.016-233.024a25.6 25.6 0 0 0-29.76 20.096 24.96 24.96 0 0 0 20.672 28.928z m-145.088 800c216.256 0 391.68-170.56 391.68-380.992s-175.424-380.992-391.68-380.992c-216.384 0-391.744 170.56-391.744 380.992s175.36 380.992 391.744 380.992z m0-49.472c-188.224 0-340.8-148.48-340.8-331.52 0-183.104 152.512-331.456 340.8-331.456s340.736 148.352 340.736 331.456c0 183.04-152.512 331.52-340.736 331.52z m236.608 26.816l63.744 61.952c9.984 9.728 26.176 9.728 36.16 0s9.984-25.408 0-35.136l-63.744-62.016a25.92 25.92 0 0 0-36.16 0 24.512 24.512 0 0 0 0 35.2zM486.656 284.608V532.48c0 13.76 11.456 24.832 25.664 24.832 14.08 0 25.536-11.072 25.536-24.832V284.608a25.344 25.344 0 0 0-25.536-24.896 25.216 25.216 0 0 0-25.664 24.896z m171.776 359.936L534.592 521.728a26.368 26.368 0 0 0-36.288-0.384 24.32 24.32 0 0 0-0.32 35.2l124.032 122.816a25.984 25.984 0 0 0 36.096 0.256 24.256 24.256 0 0 0 0.32-35.072z m-421.312 211.008l-63.744 62.016c-9.984 9.664-9.984 25.344 0 35.136s26.176 9.728 36.16 0l63.68-61.952a24.448 24.448 0 0 0 0-35.2 25.856 25.856 0 0 0-36.096 0z m0 0" fill="#ffffff" p-id="10711"></path></svg>