<?xml version="1.0" standalone="no"?><!DOCTYPE svg PUBLIC "-//W3C//DTD SVG 1.1//EN" "http://www.w3.org/Graphics/SVG/1.1/DTD/svg11.dtd"><svg t="1595384567933" class="icon" viewBox="0 0 1070 1024" version="1.1" xmlns="http://www.w3.org/2000/svg" p-id="4082" xmlns:xlink="http://www.w3.org/1999/xlink" width="133.75" height="128"><defs><style type="text/css"></style></defs><path d="M465.592991 829.553891a33.766967 33.766967 0 0 0 20.489019 9.699023c1.090974 0.106436 2.168643 0.159655 3.259617 0.159655a33.261394 33.261394 0 0 0 23.682112-9.818764l285.103364-285.103364a33.407744 33.407744 0 0 0-23.642199-57.010029h-0.106436a32.875562 32.875562 0 0 0-23.46924 9.805459L489.275104 758.773645l-167.810384-167.637425a33.261394 33.261394 0 0 0-23.668808-9.792154h-0.093132a32.875562 32.875562 0 0 0-23.46924 9.75224 33.36783 33.36783 0 0 0 0 47.23118z" p-id="4083" fill="#ffffff"></path><path d="M926.995047 84.019705H785.767169V34.074395a33.407744 33.407744 0 1 0-66.802184 0v49.94531h-367.871016V34.074395a33.407744 33.407744 0 1 0-66.802183 0v49.94531H143.183648A143.356608 143.356608 0 0 0 0 227.203353v653.599694a143.356608 143.356608 0 0 0 143.183648 143.196953h783.811399a143.356608 143.356608 0 0 0 143.196953-143.196953V227.203353A143.356608 143.356608 0 0 0 926.995047 84.019705z m76.328247 796.783342a76.461292 76.461292 0 0 1-76.381465 76.381465H143.183648a76.461292 76.461292 0 0 1-76.36816-76.381465V385.713852h936.507806z m0-561.891379H66.815488v-91.708315a76.461292 76.461292 0 0 1 76.36816-76.36816h141.108138v51.741424a33.407744 33.407744 0 1 0 66.802183 0v-51.741424h367.871016v51.741424a33.407744 33.407744 0 1 0 66.802184 0v-51.741424h141.227878a76.461292 76.461292 0 0 1 76.328247 76.36816z" p-id="4084" fill="#ffffff"></path></svg>