<?xml version="1.0" standalone="no"?><!DOCTYPE svg PUBLIC "-//W3C//DTD SVG 1.1//EN" "http://www.w3.org/Graphics/SVG/1.1/DTD/svg11.dtd"><svg t="1595384357393" class="icon" viewBox="0 0 1024 1024" version="1.1" xmlns="http://www.w3.org/2000/svg" p-id="3355" xmlns:xlink="http://www.w3.org/1999/xlink" width="128" height="128"><defs><style type="text/css"></style></defs><path d="M975.79889 638.415992c-95.245692-109.310567-54.381696-196.485433-3.332791-250.307519 26.052974-27.358731 30.455242-69.267333 10.719648-101.973452l-33.576624-56.035656c-18.504451-30.716394-53.934008-47.144068-88.132422-40.888867C710.879322 216.109105 651.871513 118.998045 630.09645 58.734221 617.896943 25.082982 586.173251 2.487157 551.141639 2.487157H473.107076c-35.019176 0-66.755304 22.595825-78.942375 56.234629-21.9616 60.251387-81.242996 157.387319-231.52948 130.438968-34.21085-6.217893-69.640407 10.172474-88.144858 40.888868l-33.576624 55.824247a84.787195 84.787195 0 0 0 10.719648 101.973453c51.098648 53.697728 92.024823 140.723364-3.332791 250.33239a85.595521 85.595521 0 0 0-8.804537 101.115383l34.235721 56.645009a86.664999 86.664999 0 0 0 73.682038 41.958345 83.804768 83.804768 0 0 0 17.758303-1.902675c74.291391-16.35306 173.802558-7.02622 225.945813 130.277303a86.304361 86.304361 0 0 0 80.223261 55.239766h80.832615c35.118662 0 67.489015-22.085958 80.571463-54.99105 52.15569-137.141858 151.7166-146.543313 225.945812-130.277303 35.441993 7.722624 72.202179-8.38172 91.490084-40.05567l34.434694-56.632574a85.80693 85.80693 0 0 0-8.816973-101.140254z m-51.471722 66.158386l-33.402524 54.978614c-7.088399 11.478231-19.897259 17.335487-31.997279 14.562306-27.358731-6.031357-81.392225-13.28142-136.45789 5.732898-64.976987 22.384416-113.252711 74.079983-143.484109 153.494918a29.982682 29.982682 0 0 1-28.055135 19.424699h-78.233535a29.957811 29.957811 0 0 1-28.030264-19.387392c-52.105947-137.054807-148.358938-165.818782-219.926891-165.818782a276.733566 276.733566 0 0 0-60.21408 6.777503c-12.348736 2.623951-25.219776-3.220869-31.99728-14.54987l-33.402524-54.953743a30.069733 30.069733 0 0 1 3.208433-35.591222c129.332184-148.893676 44.184351-269.37158 1.566909-314.252334a28.875897 28.875897 0 0 1-3.556635-35.118663l32.594198-54.182723c6.590967-10.74452 19.188419-16.813184 30.641779-14.736408a333.826263 333.826263 0 0 0 58.846143 5.496618c147.37651 0 205.663044-112.892073 224.901206-166.017755 4.34009-11.888612 14.786151-19.561493 26.600148-19.561493h75.584713c11.826433 0 22.260059 7.672881 26.600148 19.549057 19.225727 53.10081 77.499824 165.980448 224.988257 165.968012a333.565112 333.565112 0 0 0 58.547684-5.45931c11.639897-2.064341 24.237349 3.979452 30.641779 14.723972l32.606634 54.195159-3.345227 34.907254c-42.654749 44.918062-127.889632 165.395966 1.542037 314.239899a30.430371 30.430371 0 0 1 3.233305 35.578786z" fill="#ffffff" p-id="3356"></path><path d="M512.130576 318.654603c-106.4379 0-193.028284 86.60282-193.028284 193.04072s86.590384 193.028284 193.028284 193.028284 193.003413-86.590384 193.003412-193.028284-86.565513-193.04072-193.003412-193.04072z m0 315.868987a122.579551 122.579551 0 1 1 122.567115-122.579551 122.716345 122.716345 0 0 1-122.567115 122.529808z" fill="#ffffff" p-id="3357"></path></svg>