<?xml version="1.0" standalone="no"?><!DOCTYPE svg PUBLIC "-//W3C//DTD SVG 1.1//EN" "http://www.w3.org/Graphics/SVG/1.1/DTD/svg11.dtd"><svg t="1595384244680" class="icon" viewBox="0 0 1083 1024" version="1.1" xmlns="http://www.w3.org/2000/svg" p-id="2994" xmlns:xlink="http://www.w3.org/1999/xlink" width="135.375" height="128"><defs><style type="text/css"></style></defs><path d="M1083.152169 188.69988c-1.938853-89.718279-77.2454-172.298613-167.95163-184.104625l-3.704815-0.469276-211.520259-2.716865A245.456367 245.456367 0 0 0 672.917964 0.001284c-75.627631 0-161.097721 30.428884-212.681101 75.726426L58.177951 428.47553a170.619097 170.619097 0 0 0-57.906265 118.430598 170.668494 170.668494 0 0 0 44.247845 124.123664l270.056341 295.891254a176.460356 176.460356 0 0 0 120.591741 56.807169q4.939754 0.284036 9.879507 0.271686a176.324512 176.324512 0 0 0 116.207709-43.54393l401.947768-352.957759c58.350842-51.262295 102.080013-148.513699 101.73423-226.314821l18.153595-207.469661 0.148193-1.80301z m-85.951717 208.371166l-0.111144 1.309034v1.938854c0.716264 58.869516-34.751168 138.313107-79.036061 177.213668L516.105479 930.440964a108.242356 108.242356 0 0 1-151.057672-8.274088L94.954418 626.201526a104.006517 104.006517 0 0 1-26.934008-75.590582 104.105312 104.105312 0 0 1 35.269842-72.169804l402.071262-352.797217c38.826465-34.059603 109.292053-58.78307 167.581148-58.783071h0.592771a174.126322 174.126322 0 0 1 20.166545 1.173192l1.815359 0.222289 211.260922 2.741563c57.535783 7.681317 107.106212 61.969212 108.489343 118.850477z" p-id="2995" fill="#ffffff"></path><path d="M733.664586 176.67158c-81.975215 0-148.661891 65.451738-148.661891 145.932677s66.686677 145.945027 148.661891 145.945026 148.674241-65.451738 148.674241-145.945026-66.686677-145.932677-148.674241-145.932677z m2.000601 226.203676h-2.000601c-45.198747 0-81.975215-36.010805-81.975214-80.270999s36.776467-80.271 81.975214-80.271 81.999913 36.010805 81.999914 80.271c0 43.630376-35.702071 79.233651-79.999313 80.270999z" p-id="2996" fill="#ffffff"></path></svg>