<?xml version="1.0" standalone="no"?><!DOCTYPE svg PUBLIC "-//W3C//DTD SVG 1.1//EN" "http://www.w3.org/Graphics/SVG/1.1/DTD/svg11.dtd"><svg t="1595384014076" class="icon" viewBox="0 0 1024 1024" version="1.1" xmlns="http://www.w3.org/2000/svg" p-id="1862" xmlns:xlink="http://www.w3.org/1999/xlink" width="128" height="128"><defs><style type="text/css"></style></defs><path d="M394.784 105.931c-114.7 0-207.23 95.457-207.23 212.669 0 117.212 92.53 212.669 207.23 212.669s207.231-95.457 207.231-212.67c0-117.211-92.53-212.668-207.23-212.668z m0 354.717c-75.197 0-136.61-63.355-136.61-142.048 0-78.693 61.413-142.048 136.61-142.048 75.198 0 136.61 63.355 136.61 142.048 0 78.693-61.412 142.048-136.61 142.048zM0.102 876.53c-1.54 20.486 14.667 37.956 35.211 37.956h718.942c20.545 0 36.752-17.472 35.211-37.958-13.444-178.789-133.795-319.139-282.524-319.139H282.627c-148.804 0-269.088 140.324-282.525 319.14z m506.84-248.52c107.834 0 201.204 108.886 212.102 253.813l35.211-37.958H35.313l35.211 37.956C81.417 736.864 174.725 628.01 282.627 628.01h224.315z m481.75-362.663c19.502 0 35.311-15.809 35.311-35.31 0-19.501-15.809-35.31-35.31-35.31H730.811c-19.5 0-35.31 15.809-35.31 35.31 0 19.501 15.81 35.31 35.31 35.31h257.882z m0 194.207c19.502 0 35.311-15.809 35.311-35.31 0-19.502-15.809-35.31-35.31-35.31h-273.51c-19.502 0-35.31 15.808-35.31 35.31 0 19.501 15.808 35.31 35.31 35.31h273.51z m0 194.207c19.502 0 35.311-15.809 35.311-35.31 0-19.502-15.809-35.31-35.31-35.31H777.7c-19.5 0-35.31 15.808-35.31 35.31 0 19.501 15.81 35.31 35.31 35.31h210.994z" p-id="1863" fill="#ffffff"></path></svg>