<?xml version="1.0" standalone="no"?><!DOCTYPE svg PUBLIC "-//W3C//DTD SVG 1.1//EN" "http://www.w3.org/Graphics/SVG/1.1/DTD/svg11.dtd"><svg t="1595384090255" class="icon" viewBox="0 0 1024 1024" version="1.1" xmlns="http://www.w3.org/2000/svg" p-id="2314" xmlns:xlink="http://www.w3.org/1999/xlink" width="128" height="128"><defs><style type="text/css"></style></defs><path d="M753.711412 391.798073a27.975151 27.975151 0 0 0-20.677286-5.303115 27.65891 27.65891 0 0 0-18.354132 10.946798L581.81019 574.463647l-153.255176-131.2886-4.111131-2.919147-0.218936-0.133794A27.975151 27.975151 0 0 0 388.185654 447.602418L237.484731 648.573472l-2.542089 4.025989-0.133795 0.243262a27.890009 27.890009 0 0 0 8.222262 34.689187l4.098968 2.554253 0.231099 0.121631a27.890009 27.890009 0 0 0 34.689187-8.270914l132.881968-177.070544L568.175344 636.130611l4.038152 2.906983 0.243263 0.145957a27.975151 27.975151 0 0 0 36.087945-7.504638l150.700922-200.934564 2.54209-4.038152 0.121631-0.231099a27.768378 27.768378 0 0 0-8.197935-34.677025z" p-id="2315" fill="#ffffff"></path><path d="M938.128473 204.717291v-0.133794a84.448467 84.448467 0 0 0-84.047084-76.335674H732.644907a57.300407 57.300407 0 0 0-57.166614-54.490729H348.533918a57.300407 57.300407 0 0 0-57.166613 54.490729H170.015965l-8.039816 0.377057h-0.133794a84.375488 84.375488 0 0 0-54.247467 27.123733 84.180879 84.180879 0 0 0-22.088206 56.935514v653.888751l0.377056 8.039815v0.133794a84.132226 84.132226 0 0 0 84.120064 76.335673h684.053261l7.966836-0.377056h0.133794a84.448467 84.448467 0 0 0 76.335674-84.059248v-653.88875z m-586.857855-70.996069h321.470976v49.017331h-321.470976z m527.270783 732.730025l-0.413545 4.682797a24.532991 24.532991 0 0 1-24.119446 19.983988H170.137596l-4.682797-0.413546a24.472176 24.472176 0 0 1-19.983989-24.070793V212.854411l0.413546-4.670634a24.532991 24.532991 0 0 1 24.070793-19.996152H291.367305a57.300407 57.300407 0 0 0 57.166613 54.49073h326.944375a57.300407 57.300407 0 0 0 57.166614-54.49073h121.241872l4.670634 0.413546a24.532991 24.532991 0 0 1 19.983988 24.05863z" p-id="2316" fill="#ffffff"></path></svg>