<?xml version="1.0" standalone="no"?><!DOCTYPE svg PUBLIC "-//W3C//DTD SVG 1.1//EN" "http://www.w3.org/Graphics/SVG/1.1/DTD/svg11.dtd"><svg t="1595325702162" class="icon" viewBox="0 0 1257 1024" version="1.1" xmlns="http://www.w3.org/2000/svg" p-id="2404" xmlns:xlink="http://www.w3.org/1999/xlink" width="157.125" height="128"><defs><style type="text/css"></style></defs><path d="M1252.029746 456.448289a61.770861 61.770861 0 0 0-3.713679-8.875693L1115.502526 190.56125l-0.668462-1.237893c-15.0404-26.329984-39.315482-40.850469-68.356452-40.85047H875.994987v-8.55384h-0.433263v-12.626509A127.61439 127.61439 0 0 0 748.281565 0H128.381884A128.740873 128.740873 0 0 0 0 128.406642v618.339936A129.149377 129.149377 0 0 0 128.815146 875.561724h95.416793a180.509558 180.509558 0 0 0 355.275294 0h185.238309a180.447664 180.447664 0 0 0 352.502413 0h36.67877a103.747813 103.747813 0 0 0 103.438339-103.463097V484.387534c0-10.905837-2.760501-20.140519-5.335318-27.939245z m-375.948107 211.976798V218.005338h170.445488c2.537681 0 4.555446 0 7.712074 5.298182l132.021289 255.662042a33.423111 33.423111 0 0 1 1.584503 5.892371v287.191178a34.054437 34.054437 0 0 1-33.930647 33.955405h-35.094267a180.732379 180.732379 0 0 0-177.82333-149.698401h-0.111411a178.05853 178.05853 0 0 0-64.803699 12.118972z m111.18755 56.645984a120.942147 120.942147 0 0 1-42.633035 232.612475h-3.639405a120.942147 120.942147 0 1 1 46.27244-232.612475z m-670.93801 32.86606a120.90501 120.90501 0 1 1-26.243332 131.77371 120.5584 120.5584 0 0 1 26.292848-131.77371z m490.45321-41.679858a179.135497 179.135497 0 0 0-43.598592 89.747243h-184.817426a180.447664 180.447664 0 0 0-353.071844 0h-96.555654a59.418864 59.418864 0 0 1-59.270317-59.319833V128.406642a59.059875 59.059875 0 0 1 58.911328-58.948465h619.874923a58.057182 58.057182 0 0 1 57.784846 57.797224v29.709432a61.114778 61.114778 0 0 0 1.064588 11.351479 35.663698 35.663698 0 0 0-0.606568 6.387528v536.812303a33.7821 33.7821 0 0 0 0.334231 4.74113z" p-id="2405" fill="#ffffff"></path><path d="M581.983019 324.810746H280.816029a34.760036 34.760036 0 1 0-0.742736 69.507693h302.045894a34.760036 34.760036 0 0 0-0.099032-69.507693z" p-id="2406" fill="#ffffff"></path></svg>