<?xml version="1.0" standalone="no"?><!DOCTYPE svg PUBLIC "-//W3C//DTD SVG 1.1//EN" "http://www.w3.org/Graphics/SVG/1.1/DTD/svg11.dtd"><svg t="1595384126667" class="icon" viewBox="0 0 1049 1024" version="1.1" xmlns="http://www.w3.org/2000/svg" p-id="2541" xmlns:xlink="http://www.w3.org/1999/xlink" width="131.125" height="128"><defs><style type="text/css"></style></defs><path d="M921.226933 724.071703a99.017611 99.017611 0 0 0-38.186664-0.718866c-23.152447-69.791985-66.482722-131.217855-125.404955-177.721057s-128.726613-74.439826-202.026168-80.872439v-55.774095a208.148925 208.148925 0 0 0 122.232029-67.90806 204.36868 204.36868 0 0 0 50.816398-134.836975c0-55.575788-21.318099-107.495273-60.037716-146.252073S577.943572 0 522.392573 0s-107.482879 21.318099-146.252073 60.037715-60.037715 90.639102-60.037715 146.252073a204.36868 204.36868 0 0 0 50.816398 134.836975 208.22329 208.22329 0 0 0 122.232029 67.908059v55.774096a376.673453 376.673453 0 0 0-200.229003 79.199216 372.86842 372.86842 0 0 0-124.363839 176.828671 153.031724 153.031724 0 0 0-106.590493 30.266743 145.334899 145.334899 0 0 0-56.133529 94.865539 147.553468 147.553468 0 0 0 26.734383 109.961728 150.032317 150.032317 0 0 0 98.05086 59.430397h0.644501a52.464833 52.464833 0 0 1 10.683838 1.350973 59.492369 59.492369 0 0 0 12.394243 1.524492c72.915334 0 136.882025-54.856922 145.619966-124.859609a147.627834 147.627834 0 0 0-13.360994-86.536608 147.739382 147.739382 0 0 0-54.931287-60.223629c40.144955-116.381946 142.5338-199.54732 261.518537-212.511698v193.622871c-58.872656 13.26184-103.975308 61.748121-112.440577 121.079365a147.491497 147.491497 0 0 0 26.771566 110.011305 150.044711 150.044711 0 0 0 98.038466 59.418003h0.644501a51.832726 51.832726 0 0 1 10.696232 1.363367 60.384754 60.384754 0 0 0 12.394243 1.524492c72.915334 0 136.882025-54.856922 145.619966-124.834821 5.72614-37.18273-3.371234-75.03475-25.606507-106.590493-21.29331-30.266743-52.055823-51.20062-86.846463-59.05857V536.992992c120.682749 12.828042 224.211864 95.943839 264.431184 212.412544a139.621153 139.621153 0 0 0-68.242705 102.289691 147.578257 147.578257 0 0 0 26.78396 109.974123 150.057106 150.057106 0 0 0 98.05086 59.405609h0.644501a51.622024 51.622024 0 0 1 10.696232 1.363366 60.409543 60.409543 0 0 0 12.394244 1.512098c72.90294 0 136.882025-54.906499 145.657149-125.045522 8.638788-87.515753-46.20574-162.674445-127.648314-174.833198zM229.640543 883.573222c-2.788705 22.433581-14.141832 41.347196-32.881928 54.745373l-0.210702 0.161125a67.114828 67.114828 0 0 1-59.703071 13.497331l-0.421404-0.074365c-22.458369-2.801099-41.371985-14.154226-54.708191-32.832351-13.633668-19.037558-19.310231-40.901003-16.521526-63.285007s14.141832-41.347196 32.869533-54.720585l0.148731-0.111548c13.559302-10.857357 30.118012-16.360401 49.205147-16.360402h13.893947c45.028286 11.539041 73.758143 53.109333 68.329464 98.980429z m152.882993-677.320617c0-78.492744 61.438265-139.881432 139.869037-139.881431s139.90622 61.388688 139.90622 139.881431-61.450659 139.893826-139.90622 139.893826-139.869037-61.450659-139.869037-139.893826z m222.117237 677.320617c-2.813493 22.433581-14.16662 41.347196-32.894322 54.745373l-0.210703 0.161125a67.114828 67.114828 0 0 1-59.70307 13.497331l-0.421405-0.074365c-22.483158-2.751522-41.35959-14.104649-54.70819-32.832351l-0.17352-0.210702a67.114828 67.114828 0 0 1-13.509725-59.715465l0.074366-0.421404c2.801099-22.445975 14.154226-41.35959 32.869533-54.73298l0.136337-0.111548c13.571697-10.844963 30.130406-16.348007 49.217541-16.348007h13.9931c41.94212 8.601605 70.634793 50.742033 65.330058 96.042993z m374.975441 0c-2.813493 22.433581-14.16662 41.347196-32.881928 54.732979l-0.210702 0.161125a67.152011 67.152011 0 0 1-59.740253 13.509725l-0.458587-0.074365a77.476416 77.476416 0 0 1-54.658614-32.844745l-0.198308-0.247885a67.114828 67.114828 0 0 1-13.509725-59.715465l0.074365-0.421404c2.801099-22.445975 14.154226-41.35959 32.869534-54.73298l0.148731-0.111548c13.546908-10.844963 30.105617-16.348007 49.205146-16.348007h13.993101c41.94212 8.651182 70.696765 50.804004 65.36724 96.104964z" p-id="2542" fill="#ffffff"></path></svg>