<?xml version="1.0" standalone="no"?><!DOCTYPE svg PUBLIC "-//W3C//DTD SVG 1.1//EN" "http://www.w3.org/Graphics/SVG/1.1/DTD/svg11.dtd"><svg t="1595384871744" class="icon" viewBox="0 0 1122 1024" version="1.1" xmlns="http://www.w3.org/2000/svg" p-id="1380" xmlns:xlink="http://www.w3.org/1999/xlink" width="140.25" height="128"><defs><style type="text/css"></style></defs><path d="M963.329757 178.945555h-39.198091c14.820525-23.278312 27.546002-53.50132 24.894862-85.276215-2.120913-20.691833-11.639156-50.31995-47.66881-74.154355C871.160575-0.090527 832.492713-5.379876 789.052796 5.741984c-73.624127 18.532123-158.383046 82.107778-212.414594 156.262133C522.606654 87.849762 437.847735 23.743878 363.693379 5.741984c-43.426984-10.604564-82.107778-5.83251-112.330786 14.303229-35.990856 23.834405-46.05226 53.488387-47.642945 74.154355-3.181369 31.244667 10.061404 61.972039 24.894862 85.35381H189.416419A89.737892 89.737892 0 0 0 99.898378 269.071419v119.133226a88.677435 88.677435 0 0 0 66.213865 85.806444 88.97488 88.97488 0 0 0-6.362739 33.378512v357.541936a89.750824 89.750824 0 0 0 89.530973 89.518041h654.71545A89.750824 89.750824 0 0 0 993.5269 864.931537V507.376669a89.233528 89.233528 0 0 0-6.311009-33.378513c38.137634-10.591632 66.213864-44.48744 66.213865-85.806443V268.476528c-0.530228-49.272426-40.788775-89.530973-90.04827-89.530973zM802.825798 64.002425c27.015774-6.880034 48.729266-4.772054 65.153408 5.83251 17.484599 11.639156 20.691833 22.773948 21.183263 29.653983 2.651141 29.136687-29.123754 67.804549-40.775842 79.456637H638.610241c46.091057-54.548844 110.714237-101.700357 164.241421-114.94313zM262.52325 99.488918c0.478499-7.436127 3.698665-18.001894 21.170332-29.653983 16.424142-10.604564 38.137634-12.712545 65.153408-5.83251 53.50132 13.242773 118.1245 60.394287 164.241421 114.94313H303.829321c-11.639156-11.639156-43.970144-49.789722-41.306071-79.456637zM158.70198 268.476528a29.615185 29.615185 0 0 1 29.653983-29.666915h357.554868v178.467057H188.886191a29.602253 29.602253 0 0 1-29.653983-29.666915z m59.851126 595.92478V506.84644a29.615185 29.615185 0 0 1 29.666915-29.666915h297.69081v416.888698H248.220021a29.628118 29.628118 0 0 1-29.666915-29.666915z m715.161465 0a29.628118 29.628118 0 0 1-29.666915 29.666915H605.774889V477.179525h298.221038a29.615185 29.615185 0 0 1 29.666915 29.666915z m59.33383-476.739824a29.628118 29.628118 0 0 1-29.666915 29.666915H605.774889v-178.467056h357.554868a29.628118 29.628118 0 0 1 29.666915 29.666915z m0 0" p-id="1381" fill="#ffffff"></path></svg>