<?xml version="1.0" standalone="no"?><!DOCTYPE svg PUBLIC "-//W3C//DTD SVG 1.1//EN" "http://www.w3.org/Graphics/SVG/1.1/DTD/svg11.dtd"><svg t="1595384417964" class="icon" viewBox="0 0 1136 1024" version="1.1" xmlns="http://www.w3.org/2000/svg" p-id="3582" xmlns:xlink="http://www.w3.org/1999/xlink" width="142" height="128"><defs><style type="text/css"></style></defs><path d="M338.032528 1.692421C213.660527 1.692421 112.753741 102.49746 112.753741 226.907616s100.919504 225.202477 225.278787 225.202477h225.227914V226.907616A225.17704 225.17704 0 0 0 338.032528 1.692421m155.875166 381.141234H338.032528c-85.950095 0-155.900602-69.950507-155.900602-155.926039S252.095151 70.968859 338.032528 70.968859s155.862447 69.950507 155.862447 155.938757z m589.046858-155.926039a225.215195 225.215195 0 1 0-450.417672 0v225.202477h225.215195a225.17704 225.17704 0 0 0 225.202477-225.202477m-381.141234 0c0-85.950095 69.950507-155.938757 155.938757-155.938757s155.926039 69.950507 155.926039 155.938757a156.142249 156.142249 0 0 1-155.926039 155.926039H701.775163zM112.76646 746.614445c0 124.397438 100.906786 225.202477 225.278786 225.202477a225.17704 225.17704 0 0 0 225.215196-225.202477V521.39925H338.032528C213.673245 521.39925 112.76646 622.255162 112.76646 746.614445m381.141234 0c0 85.937377-69.950507 155.926039-155.862448 155.926039s-155.900602-69.950507-155.900602-155.926039 69.950507-155.938757 155.887884-155.938757h155.875166z m363.844381-225.215195H632.53688v225.215195a225.215195 225.215195 0 1 0 225.215195-225.215195m0 381.141234c-85.950095 0-155.938757-69.950507-155.938757-155.926039V590.675688h155.938757c85.950095 0 155.926039 69.950507 155.926039 155.938757s-69.950507 155.926039-155.926039 155.926039" p-id="3583" fill="#ffffff"></path></svg>