<?xml version="1.0" standalone="no"?><!DOCTYPE svg PUBLIC "-//W3C//DTD SVG 1.1//EN" "http://www.w3.org/Graphics/SVG/1.1/DTD/svg11.dtd"><svg t="1595385195647" class="icon" viewBox="0 0 1024 1024" version="1.1" xmlns="http://www.w3.org/2000/svg" p-id="1490" xmlns:xlink="http://www.w3.org/1999/xlink" width="128" height="128"><defs><style type="text/css"></style></defs><path d="M724.949333 160a74.666667 74.666667 0 0 1 60.373334 30.741333l137.514666 189.077334a74.666667 74.666667 0 0 1-5.013333 94.016L567.36 861.162667a74.666667 74.666667 0 0 1-110.72 0L106.176 473.834667a74.666667 74.666667 0 0 1-5.013333-94.016l137.514666-189.077334a74.666667 74.666667 0 0 1 60.373334-30.741333h425.898666z m0 64H299.050667a10.666667 10.666667 0 0 0-8.618667 4.394667l-137.514667 189.077333a10.666667 10.666667 0 0 0 0.725334 13.44L504.106667 818.197333a10.666667 10.666667 0 0 0 15.829333 0l350.442667-387.328a10.666667 10.666667 0 0 0 0.725333-13.44l-137.514667-189.056a10.666667 10.666667 0 0 0-8.618666-4.394666z m-63.893333 182.229333a32 32 0 0 1 47.445333 42.944l-172.778666 190.954667a32 32 0 0 1-47.445334 0l-172.202666-190.314667a32 32 0 0 1 47.445333-42.944L512 570.965333l149.056-164.736z" fill="#ffffff" p-id="1491"></path></svg>