<?xml version="1.0" standalone="no"?><!DOCTYPE svg PUBLIC "-//W3C//DTD SVG 1.1//EN" "http://www.w3.org/Graphics/SVG/1.1/DTD/svg11.dtd"><svg t="1595385080776" class="icon" viewBox="0 0 1024 1024" version="1.1" xmlns="http://www.w3.org/2000/svg" p-id="10702" xmlns:xlink="http://www.w3.org/1999/xlink" width="128" height="128"><defs><style type="text/css"></style></defs><path d="M645.909169 298.131962H376.1988c-7.82862 0-15.081405 6.128535-18.97515 16.082263a45.449871 45.449871 0 0 0 0 32.164524c3.907455 9.953728 11.14653 16.082262 18.97515 16.082262h269.710369c7.82862 0 15.081405-6.128535 18.97515-16.082262a45.449871 45.449871 0 0 0 0-32.164524c-3.907455-9.953728-11.14653-16.082262-18.97515-16.082263zM722.413025 700.051414H299.694944a34.810626 34.810626 0 0 0-29.737789 16.082262 30.382177 30.382177 0 0 0 0 32.164525 34.810626 34.810626 0 0 0 29.737789 16.082262h422.718081a34.824336 34.824336 0 0 0 29.737789-16.082262 30.382177 30.382177 0 0 0 0-32.164525 34.824336 34.824336 0 0 0-29.737789-16.082262zM722.413025 530.536418H299.694944a34.810626 34.810626 0 0 0-29.737789 16.082262 30.382177 30.382177 0 0 0 0 32.164525 34.810626 34.810626 0 0 0 29.737789 16.082262h422.718081a34.824336 34.824336 0 0 0 29.737789-16.137104 30.382177 30.382177 0 0 0 0-32.164524 34.824336 34.824336 0 0 0-29.737789-16.082262z" fill="#ffffff" p-id="10703"></path><path d="M830.491859 125.38132a14.670094 14.670094 0 0 1 14.670095 14.615252v744.473008a14.670094 14.670094 0 0 1-14.670095 14.656384h-638.90317a14.670094 14.670094 0 0 1-14.656384-14.656384v-744.473008a14.670094 14.670094 0 0 1 14.656384-14.656383h638.90317m0-63.067695h-638.90317a77.724079 77.724079 0 0 0-77.710369 77.724078v744.473008a77.724079 77.724079 0 0 0 77.724079 77.724079h638.903171a77.724079 77.724079 0 0 0 77.737789-77.724079v-744.473008a77.724079 77.724079 0 0 0-77.737789-77.724078z" fill="#ffffff" p-id="10704"></path></svg>