<?xml version="1.0" standalone="no"?><!DOCTYPE svg PUBLIC "-//W3C//DTD SVG 1.1//EN" "http://www.w3.org/Graphics/SVG/1.1/DTD/svg11.dtd"><svg t="1595384537149" class="icon" viewBox="0 0 1024 1024" version="1.1" xmlns="http://www.w3.org/2000/svg" p-id="3808" xmlns:xlink="http://www.w3.org/1999/xlink" width="128" height="128"><defs><style type="text/css"></style></defs><path d="M78.941692 535.639003L512.130826 143.524688" p-id="3809" fill="#ffffff"></path><path d="M633.287557 545.150554a30.407773 30.407773 0 1 0 0-60.706078h-111.900605a30.286142 30.286142 0 0 0 13.25779-7.760064l110.051812-110.039648a30.407773 30.407773 0 0 0 0-42.935776 30.492915 30.492915 0 0 0-21.480051-8.611481 30.407773 30.407773 0 0 0-21.455725 8.611481L512.872776 412.645643l-88.936654-88.936655a30.407773 30.407773 0 0 0-21.467888-8.611481 30.152348 30.152348 0 0 0-21.467888 51.535093L490.97918 476.684412a30.201 30.201 0 0 0 13.233462 7.760064h-113.202057a30.407773 30.407773 0 1 0 0 60.706078h90.761121v38.009716h-90.761121a30.407773 30.407773 0 0 0 0 60.718241h90.761121V734.651795a30.407773 30.407773 0 0 0 60.718241 0v-90.773284H633.287557a30.407773 30.407773 0 1 0 0-60.718241h-90.736795V545.150554z" p-id="3810" fill="#ffffff"></path><path d="M920.847785 362.959341a443.856181 443.856181 0 0 0-817.458243 0 443.588592 443.588592 0 0 0 722.403544 486.341922 443.953486 443.953486 0 0 0 95.054699-486.341922z m-408.680469 554.394518c-210.421789 0-381.714856-171.244414-381.714856-381.714856s171.195762-381.702693 381.678366-381.702693 381.702693 171.232251 381.702693 381.702693-171.232251 381.714856-381.702693 381.714856z" p-id="3811" fill="#ffffff"></path></svg>