<?xml version="1.0" standalone="no"?><!DOCTYPE svg PUBLIC "-//W3C//DTD SVG 1.1//EN" "http://www.w3.org/Graphics/SVG/1.1/DTD/svg11.dtd"><svg t="1595383924350" class="icon" viewBox="0 0 1160 1024" version="1.1" xmlns="http://www.w3.org/2000/svg" p-id="1410" xmlns:xlink="http://www.w3.org/1999/xlink" width="145" height="128"><defs><style type="text/css"></style></defs><path d="M1150.108183 332.713434l-0.142656-0.453907c-0.337188-1.452501-0.752188-3.034689-1.296876-4.837346l-107.303486-274.937626C1033.506099 29.763295 1013.521246 2.632657 963.111691 0.051875H202.999937c-37.401892 0-65.064249 18.480477-76.165503 50.746742l-113.645209 275.845439a43.211895 43.211895 0 0 0-2.230626 6.419534l-0.376094 1.154219a211.079472 211.079472 0 0 0-10.582505 65.284718c0 73.714409 39.515799 141.216783 103.153485 176.154612l0.817032 0.427968c25.937512 13.254069 57.282995 20.257197 90.885041 20.257197 67.995187 0 129.882091-35.495485 165.559139-94.944262l0.570625-0.985625c0.713282-1.296876 1.465469-2.723439 2.269532-4.253752a57.620183 57.620183 0 0 1 7.210629-11.438443c1.945313-2.308439 8.818754-5.485784 18.156258-5.485784h0.453906c8.287035 0.090781 15.834851 2.775314 19.38829 6.847503a77.734723 77.734723 0 0 1 7.158754 11.931256l1.296875 2.438126c35.469547 60.04534 97.123013 95.890981 164.92367 95.890981 66.60753 0 127.664433-35.495485 163.328512-94.944262l1.296875-2.139845 0.959688-2.321407a38.906268 38.906268 0 0 1 6.069378-10.375005l0.959688-1.154219c2.593751-3.22922 8.883598-6.990159 18.298915-6.990159 11.516255 0 16.57407 4.111096 18.558289 6.549221l0.84297 0.998594a52.22518 52.22518 0 0 1 7.495941 12.09985l1.608125 2.930939c36.429235 59.254246 98.238326 94.671918 165.33867 94.671918h0.817031c36.130954-0.894844 67.204093-8.377816 92.350511-22.20251l0.479844-0.259375a199.991185 199.991185 0 0 0 100.430046-175.882268 208.550564 208.550564 0 0 0-10.569536-64.610342z m-122.139743 180.369457c-15.562507 8.468598-36.883142 13.292975-61.783153 13.954382-43.380489-0.142656-83.479882-23.019542-107.640675-61.329247a114.66974 114.66974 0 0 0-16.379538-25.172356c-9.687661-11.67188-31.293608-30.697045-69.447689-30.697045-28.03845 0-53.392368 11.542193-69.668156 31.708608a105.60458 105.60458 0 0 0-15.925633 25.768918c-23.551261 37.920642-62.75581 60.486278-105.306298 60.486278-43.834395 0-83.81707-23.110323-107.173799-61.847997a143.317722 143.317722 0 0 0-13.876569-22.474854l-0.648438-0.83c-16.133132-19.984853-41.772363-31.630796-70.342532-31.967984-28.116263-0.389063-54.131587 10.569536-69.395813 28.647982a119.066148 119.066148 0 0 0-15.964538 24.342355l-1.219063 2.308439c-23.473448 38.711736-63.935967 61.82206-108.353956 61.822059-23.084386 0-44.015958-4.435315-60.564091-12.813131a131.76256 131.76256 0 0 1-67.43753-115.512709 140.568346 140.568346 0 0 1 6.756721-42.407832 46.026115 46.026115 0 0 0 1.46547-4.526096l113.723021-276.234501 0.907813-2.50297c0.817032-2.477032 1.724845-5.304221 13.292974-5.304221h757.543941c15.873757 0.93375 17.066883 4.48719 17.935789 7.093909l106.693955 273.368407a44.858927 44.858927 0 0 0 1.958283 6.601097 139.115845 139.115845 0 0 1 6.743753 42.057675 131.386466 131.386466 0 0 1-65.894249 115.460834z m17.430008 143.460378c-18.441571 0-33.394547 15.342038-33.394547 34.263453v242.347143a22.046885 22.046885 0 0 1-21.748603 22.319229H186.373992a22.046885 22.046885 0 0 1-21.735635-22.319229v-269.750124c0-18.921415-14.952976-34.263453-33.407515-34.263453S97.823327 644.482326 97.823327 663.403741v269.750124c0 50.085335 39.723299 90.846135 88.550665 90.846135h803.881306c48.827366 0 88.550666-40.7608 88.550665-90.846135V690.819691c0-18.921415-14.952976-34.263453-33.407515-34.263453z" p-id="1411" fill="#ffffff"></path></svg>