<?xml version="1.0" standalone="no"?><!DOCTYPE svg PUBLIC "-//W3C//DTD SVG 1.1//EN" "http://www.w3.org/Graphics/SVG/1.1/DTD/svg11.dtd"><svg t="1595325329808" class="icon" viewBox="0 0 1024 1024" version="1.1" xmlns="http://www.w3.org/2000/svg" p-id="1544" xmlns:xlink="http://www.w3.org/1999/xlink" width="128" height="128"><defs><style type="text/css"></style></defs><path d="M170.666667 284.444444v189.041778l227.413333 90.965334a85.333333 85.333333 0 0 1 52.48 93.269333l-23.608889 198.741333C430.648889 879.36 473.884444 910.222222 512 910.222222c38.115556 0 81.322667-30.862222 85.048889-53.76l-23.608889-198.741333a85.333333 85.333333 0 0 1 52.48-93.269333L853.333333 473.486222V284.444444H170.666667z m0-56.888888h682.666666V113.777778H170.666667v113.777778z m458.865777 420.807111L654.222222 853.333333c0 62.862222-79.36 113.777778-142.222222 113.777778s-142.222222-50.915556-142.222222-113.777778l24.689778-204.970666a28.444444 28.444444 0 0 0-17.493334-31.089778l-227.441778-90.965333A56.888889 56.888889 0 0 1 113.777778 473.486222V113.777778a56.888889 56.888889 0 0 1 56.888889-56.888889h682.666666a56.888889 56.888889 0 0 1 56.888889 56.888889v359.708444a56.888889 56.888889 0 0 1-35.754666 52.821334L647.025778 617.244444a28.444444 28.444444 0 0 0-17.493334 31.089778z" p-id="1545" fill="#ffffff"></path></svg>