<?xml version="1.0" standalone="no"?><!DOCTYPE svg PUBLIC "-//W3C//DTD SVG 1.1//EN" "http://www.w3.org/Graphics/SVG/1.1/DTD/svg11.dtd"><svg t="1595385838415" class="icon" viewBox="0 0 1024 1024" version="1.1" xmlns="http://www.w3.org/2000/svg" p-id="1410" xmlns:xlink="http://www.w3.org/1999/xlink" width="128" height="128"><defs><style type="text/css"></style></defs><path d="M401.152 1007.6672c-259.9424 0-386.2272-60.8512-386.2272-186.112 0-88.0384 131.2256-145.6896 263.8848-165.888l0-7.4496C179.7632 572.416 166.5792 437.12 166.5792 325.888c0-151.6288 89.2416-242.1504 238.6944-242.1504l7.8592 0c149.504 0 238.7456 90.5472 238.7456 242.1504 0 111.232-13.2096 246.528-112.2816 322.3296l0 7.4496c132.6336 20.1984 263.8592 77.7984 263.8592 165.888C803.4816 906.4704 733.7216 1007.6672 401.152 1007.6672L401.152 1007.6672zM405.2736 157.1328c-109.696 0-165.3248 56.7552-165.3248 168.7552 0 104.6784 11.3152 218.88 95.2832 272.2816 10.5472 6.7584 16.9984 18.4576 16.9984 31.0016l0 58.8032c0 18.7904-14.1824 34.56-32.8704 36.5056-138.88 14.6432-231.0144 68.1472-231.0144 97.1008 0 74.8032 105.216 112.6912 312.8064 112.6912 208.9728 0 328.9344-41.0624 328.9344-112.6912 0-28.9536-92.1344-82.4576-231.0144-97.1008-18.6624-1.9456-32.8448-17.6896-32.8448-36.5056l0-58.8032c0-12.544 6.4-24.2432 17.024-31.0016 83.9424-53.4528 95.2832-167.6032 95.2832-272.2816 0-111.9744-55.6544-168.7552-165.376-168.7552L405.2736 157.1328 405.2736 157.1328zM972.3648 782.3872c-20.3264 0-36.736-16.4608-36.736-36.7104 0-28.16-104.6016-96.3072-225.8944-109.1072-18.7136-1.9968-32.896-17.6896-32.896-36.5056l0-76.3392c0-12.5184 6.4-24.2176 16.9728-30.976 95.0016-60.4416 105.1904-194.7392 105.1904-249.7024 0-126.7456-85.6576-153.344-157.5168-153.344-20.3008 0-36.7104-16.4352-36.7104-36.7104 0-20.2496 16.4096-36.7104 36.7104-36.7104 142.4384 0 230.9376 86.912 230.9376 226.7648 0 63.8976-12.3136 216.4224-122.1888 299.8016l0 25.4976c117.2736 21.4016 258.816 91.6992 258.816 177.3056C1009.0752 765.9264 992.6144 782.3872 972.3648 782.3872L972.3648 782.3872zM972.3648 782.3872" p-id="1411" fill="#ffffff"></path></svg>