<?xml version="1.0" standalone="no"?><!DOCTYPE svg PUBLIC "-//W3C//DTD SVG 1.1//EN" "http://www.w3.org/Graphics/SVG/1.1/DTD/svg11.dtd"><svg t="1656218180650" class="icon" viewBox="0 0 1024 1024" version="1.1" xmlns="http://www.w3.org/2000/svg" p-id="3930" xmlns:xlink="http://www.w3.org/1999/xlink" width="64" height="64"><defs><style type="text/css"></style></defs><path d="M772.096 877.568H264.192c-17.408 0-30.72-13.312-30.72-30.72s13.312-30.72 30.72-30.72h506.88c17.408 0 30.72 13.312 30.72 30.72s-13.312 30.72-29.696 30.72zM819.2 768H227.328c-34.816 0-62.464-28.672-62.464-62.464V293.888c0-34.816 28.672-62.464 62.464-62.464H819.2c34.816 0 62.464 28.672 62.464 62.464v411.648c0 33.792-28.672 62.464-62.464 62.464zM227.328 291.84c-1.024 0-1.024 1.024-1.024 1.024v411.648c0 1.024 1.024 1.024 1.024 1.024H819.2c1.024 0 1.024-1.024 1.024-1.024V293.888c0-1.024-1.024-1.024-1.024-1.024H227.328z" fill="#0066EA" p-id="3931"></path><path d="M316.416 422.912c0-22.528 36.864-23.552 36.864 0v158.72c0 23.552-36.864 23.552-36.864 0V422.912zM387.072 500.736c0-53.248 33.792-99.328 97.28-99.328 24.576 0 43.008 7.168 63.488 24.576 7.168 7.168 8.192 19.456 1.024 26.624-7.168 7.168-18.432 6.144-25.6-1.024-11.264-12.288-23.552-15.36-38.912-15.36-43.008 0-63.488 30.72-63.488 64.512 0 34.816 20.48 66.56 63.488 66.56 15.36 0 30.72-6.144 43.008-17.408 8.192-7.168 20.48-3.072 25.6 3.072 4.096 6.144 7.168 16.384-3.072 26.624-19.456 18.432-43.008 21.504-65.536 21.504-66.56-1.024-97.28-46.08-97.28-100.352zM589.824 422.912c0-9.216 7.168-19.456 18.432-19.456h64.512c35.84 0 68.608 24.576 68.608 70.656 0 44.032-32.768 68.608-68.608 68.608h-46.08v36.864c0 12.288-8.192 19.456-17.408 19.456-9.216 0-18.432-7.168-18.432-19.456V422.912z m36.864 16.384v69.632h46.08c18.432 0 33.792-16.384 33.792-33.792 0-19.456-14.336-35.84-33.792-35.84h-46.08z" fill="#80B1F5" p-id="3932"></path></svg>