<?xml version="1.0" standalone="no"?><!DOCTYPE svg PUBLIC "-//W3C//DTD SVG 1.1//EN" "http://www.w3.org/Graphics/SVG/1.1/DTD/svg11.dtd"><svg t="1656219529516" class="icon" viewBox="0 0 1024 1024" version="1.1" xmlns="http://www.w3.org/2000/svg" p-id="2710" xmlns:xlink="http://www.w3.org/1999/xlink" width="64" height="64"><defs><style type="text/css"></style></defs><path d="M699.52 935.04H313.6c-28.16 0-51.2-23.04-51.2-51.2v-234.88c0-28.16 23.04-51.2 51.2-51.2h385.92c28.16 0 51.2 23.04 51.2 51.2v234.88c0 28.16-23.04 51.2-51.2 51.2z" fill="#1297B5" p-id="2711"></path><path d="M699.52 947.84H313.6c-35.2 0-64-28.8-64-64v-234.88c0-35.2 28.8-64 64-64h385.92c35.2 0 64 28.8 64 64v234.88c0 35.84-28.8 64-64 64zM313.6 611.2c-21.12 0-38.4 17.28-38.4 38.4v234.88c0 21.12 17.28 38.4 38.4 38.4h385.92c21.12 0 38.4-17.28 38.4-38.4v-234.88c0-21.12-17.28-38.4-38.4-38.4H313.6z" fill="#29E0F6" p-id="2712"></path><path d="M508.8 182.4C412.16 182.4 332.8 261.76 332.8 357.76V537.6h352V357.76c0-96-79.36-175.36-176-175.36z" fill="#1297B5" p-id="2713"></path><path d="M697.6 550.4H320V357.76c0-103.68 84.48-188.16 188.8-188.16S697.6 254.08 697.6 357.76V550.4z m-352-25.6h326.4V357.76c0-89.6-72.96-162.56-163.2-162.56S345.6 268.16 345.6 357.76V524.8z" fill="#29E0F6" p-id="2714"></path><path d="M449.92 537.6h112v60.8H449.92z" fill="#1297B5" p-id="2715"></path><path d="M575.36 611.2H437.12V524.8h137.6v86.4z m-112.64-25.6h86.4V550.4H462.72v35.2z" fill="#29E0F6" p-id="2716"></path><path d="M708.48 450.56c-12.8 0-23.04-10.24-23.04-23.04v-38.4c0-12.8 10.24-23.04 23.04-23.04s23.04 10.24 23.04 23.04v38.4c0 12.8-10.24 23.04-23.04 23.04z" fill="#1297B5" p-id="2717"></path><path d="M708.48 463.36c-19.84 0-35.84-16-35.84-35.84v-38.4c0-19.84 16-35.84 35.84-35.84s35.84 16 35.84 35.84v38.4c0 19.84-16 35.84-35.84 35.84z m0-83.84c-5.76 0-10.24 4.48-10.24 10.24v38.4c0 5.76 4.48 10.24 10.24 10.24s10.24-4.48 10.24-10.24v-38.4c0-5.76-4.48-10.24-10.24-10.24z" fill="#29E0F6" p-id="2718"></path><path d="M305.92 440.32c-12.8 0-23.04-10.24-23.04-23.04v-38.4c0-12.8 10.24-23.04 23.04-23.04s23.04 10.24 23.04 23.04v38.4c0 12.8-10.88 23.04-23.04 23.04z" fill="#1297B5" p-id="2719"></path><path d="M305.92 453.12c-19.84 0-35.84-16-35.84-35.84v-38.4c0-19.84 16-35.84 35.84-35.84s35.84 16 35.84 35.84v38.4c0 19.84-16.64 35.84-35.84 35.84z m0-83.84c-5.76 0-10.24 4.48-10.24 10.24v38.4c0 5.76 4.48 10.24 10.24 10.24s10.24-4.48 10.24-10.24v-38.4c0-5.76-5.12-10.24-10.24-10.24z" fill="#29E0F6" p-id="2720"></path><path d="M789.12 782.72h-25.6c-7.04 0-12.8-5.76-12.8-12.8v-46.08c0-14.08-2.56-25.6 11.52-25.6h26.88c14.08 0 25.6 11.52 25.6 25.6v33.28c0 14.08-11.52 25.6-25.6 25.6z" fill="#1297B5" p-id="2721"></path><path d="M789.12 795.52h-25.6c-14.08 0-25.6-11.52-25.6-25.6v-46.08-5.12c0-8.96-0.64-19.2 6.4-26.24 4.48-4.48 10.24-6.4 17.92-6.4h26.88c21.12 0 38.4 17.28 38.4 38.4v33.28c0 20.48-17.28 37.76-38.4 37.76z m-26.24-84.48v58.88h25.6c7.04 0 12.8-5.76 12.8-12.8v-33.28c0-7.04-5.76-12.8-12.8-12.8h-25.6z" fill="#29E0F6" p-id="2722"></path><path d="M810.24 753.28l-0.64-25.6v12.8-12.8c5.12 0 48-3.2 48-58.24V473.6h25.6v196.48c0 81.28-72.32 83.2-72.96 83.2z" fill="#29E0F6" p-id="2723"></path><path d="M222.08 782.72h25.6c7.04 0 12.8-5.76 12.8-12.8v-58.88c0-7.04-5.76-12.8-12.8-12.8h-25.6c-14.08 0-25.6 11.52-25.6 25.6v33.28c0 14.08 11.52 25.6 25.6 25.6z" fill="#1297B5" p-id="2724"></path><path d="M247.68 795.52h-25.6c-21.12 0-38.4-17.28-38.4-38.4v-33.28c0-21.12 17.28-38.4 38.4-38.4h25.6c14.08 0 25.6 11.52 25.6 25.6v58.88c0 14.08-11.52 25.6-25.6 25.6z m-25.6-84.48c-7.04 0-12.8 5.76-12.8 12.8v33.28c0 7.04 5.76 12.8 12.8 12.8h25.6v-58.88h-25.6zM512.64 159.36c-23.68 0-43.52-19.2-43.52-43.52s19.2-43.52 43.52-43.52 43.52 19.2 43.52 43.52-19.84 43.52-43.52 43.52z m0-61.44c-9.6 0-17.92 8.32-17.92 17.92s8.32 17.92 17.92 17.92 17.92-8.32 17.92-17.92-8.32-17.92-17.92-17.92z" fill="#29E0F6" p-id="2725"></path><path d="M499.2 153.6h25.6v32h-25.6z" fill="#29E0F6" p-id="2726"></path><path d="M506.24 325.12m-69.12 0a69.12 69.12 0 1 0 138.24 0 69.12 69.12 0 1 0-138.24 0Z" fill="#0EAFC9" p-id="2727"></path><path d="M506.24 407.04c-44.8 0-81.92-36.48-81.92-81.92S460.8 243.2 506.24 243.2s81.92 36.48 81.92 81.92-37.12 81.92-81.92 81.92z m0-138.24c-30.72 0-56.32 24.96-56.32 56.32s24.96 56.32 56.32 56.32 56.32-24.96 56.32-56.32-25.6-56.32-56.32-56.32z" fill="#29E0F6" p-id="2728"></path><path d="M597.76 452.48m-10.24 0a10.24 10.24 0 1 0 20.48 0 10.24 10.24 0 1 0-20.48 0Z" fill="#29E0F6" p-id="2729"></path><path d="M416 678.4H332.8c-7.04 0-12.8-5.76-12.8-12.8s5.76-12.8 12.8-12.8h83.2c7.04 0 12.8 5.76 12.8 12.8s-5.76 12.8-12.8 12.8z" fill="#29E0F6" p-id="2730"></path><path d="M506.24 325.12m-16 0a16 16 0 1 0 32 0 16 16 0 1 0-32 0Z" fill="#29E0F6" p-id="2731"></path><path d="M870.4 492.8c-27.52 0-51.2-21.76-51.2-46.72 0-7.04 5.76-12.8 12.8-12.8s12.8 5.76 12.8 12.8c0 10.88 12.16 21.12 25.6 21.12s25.6-10.24 25.6-21.12c0-7.04 5.76-12.8 12.8-12.8s12.8 5.76 12.8 12.8c0 24.96-23.68 46.72-51.2 46.72z" fill="#29E0F6" p-id="2732"></path><path d="M188.16 753.28c-0.64 0-72.96-2.56-72.96-83.84V473.6h25.6v196.48c0 55.04 42.88 57.6 48 58.24l-0.64 24.96z" fill="#29E0F6" p-id="2733"></path><path d="M124.8 492.8c-27.52 0-51.2-21.76-51.2-46.72 0-7.04 5.76-12.8 12.8-12.8s12.8 5.76 12.8 12.8c0 10.88 12.16 21.12 25.6 21.12s25.6-10.24 25.6-21.12c0-7.04 5.76-12.8 12.8-12.8s12.8 5.76 12.8 12.8c0 24.96-23.04 46.72-51.2 46.72z" fill="#29E0F6" p-id="2734"></path><path d="M576.64 856.32m-23.68 0a23.68 23.68 0 1 0 47.36 0 23.68 23.68 0 1 0-47.36 0Z" fill="#0EAFC9" p-id="2735"></path><path d="M576.64 892.8c-19.84 0-36.48-16-36.48-36.48s16-36.48 36.48-36.48 36.48 16 36.48 36.48-16.64 36.48-36.48 36.48z m0-46.72c-5.76 0-10.88 4.48-10.88 10.88s4.48 10.88 10.88 10.88 10.88-4.48 10.88-10.88-5.12-10.88-10.88-10.88z" fill="#29E0F6" p-id="2736"></path><path d="M666.24 856.32m-23.68 0a23.68 23.68 0 1 0 47.36 0 23.68 23.68 0 1 0-47.36 0Z" fill="#0EAFC9" p-id="2737"></path><path d="M666.24 892.8c-19.84 0-36.48-16-36.48-36.48s16-36.48 36.48-36.48 36.48 16 36.48 36.48-16.64 36.48-36.48 36.48z m0-46.72c-5.76 0-10.88 4.48-10.88 10.88s4.48 10.88 10.88 10.88 10.88-4.48 10.88-10.88-5.12-10.88-10.88-10.88z" fill="#29E0F6" p-id="2738"></path></svg>